<?xml version="1.0" encoding="UTF-8" standalone="no"?>
<!DOCTYPE svg PUBLIC "-//W3C//DTD SVG 1.1//EN"
 "http://www.w3.org/Graphics/SVG/1.1/DTD/svg11.dtd">
<!-- Generated by graphviz version 2.40.1 (20161225.0304)
 -->
<!-- Title: L Pages: 1 -->
<svg width="1180pt" height="191pt"
 viewBox="0.00 0.00 1179.50 191.00" xmlns="http://www.w3.org/2000/svg" xmlns:xlink="http://www.w3.org/1999/xlink">
<g id="graph0" class="graph" transform="scale(1 1) rotate(0) translate(4 187)">
<title>L</title>
<polygon fill="#ffffff" stroke="transparent" points="-4,4 -4,-187 1175.5,-187 1175.5,4 -4,4"/>
<!-- a -->
<g id="node1" class="node">
<title>a</title>
<polygon fill="none" stroke="#000000" points="426.5,-146.5 426.5,-182.5 480.5,-182.5 480.5,-146.5 426.5,-146.5"/>
<text text-anchor="middle" x="453.5" y="-160.8" font-family="Arial" font-size="14.00" fill="#000000">Main</text>
</g>
<!-- b -->
<g id="node2" class="node">
<title>b</title>
<polygon fill="none" stroke="#000000" points="0,-73.5 0,-109.5 61,-109.5 61,-73.5 0,-73.5"/>
<text text-anchor="middle" x="30.5" y="-87.8" font-family="Arial" font-size="14.00" fill="#000000">math.h</text>
</g>
<!-- a&#45;&gt;b -->
<g id="edge1" class="edge">
<title>a&#45;&gt;b</title>
<path fill="none" stroke="#000000" d="M426.3661,-163.4513C364.2205,-160.4643 207.0375,-149.5791 71.0007,-110.0136"/>
<polygon fill="#000000" stroke="#000000" points="71.8269,-106.6079 61.2442,-107.115 69.8333,-113.318 71.8269,-106.6079"/>
</g>
<!-- c -->
<g id="node3" class="node">
<title>c</title>
<polygon fill="none" stroke="#000000" points="79,-73.5 79,-109.5 138,-109.5 138,-73.5 79,-73.5"/>
<text text-anchor="middle" x="108.5" y="-87.8" font-family="Arial" font-size="14.00" fill="#000000">stdio.h</text>
</g>
<!-- a&#45;&gt;c -->
<g id="edge2" class="edge">
<title>a&#45;&gt;c</title>
<path fill="none" stroke="#000000" d="M426.3126,-162.1115C373.7527,-156.9783 254.7107,-142.838 148.0336,-109.7108"/>
<polygon fill="#000000" stroke="#000000" points="149.0008,-106.3459 138.4106,-106.6592 146.8848,-113.0184 149.0008,-106.3459"/>
</g>
<!-- d -->
<g id="node4" class="node">
<title>d</title>
<polygon fill="none" stroke="#000000" points="156.5,-73.5 156.5,-109.5 212.5,-109.5 212.5,-73.5 156.5,-73.5"/>
<text text-anchor="middle" x="184.5" y="-87.8" font-family="Arial" font-size="14.00" fill="#000000">cars.c</text>
</g>
<!-- a&#45;&gt;d -->
<g id="edge3" class="edge">
<title>a&#45;&gt;d</title>
<path fill="none" stroke="#000000" d="M426.4715,-160.2588C384.296,-153.1951 300.3677,-137.3469 222.372,-109.9202"/>
<polygon fill="#000000" stroke="#000000" points="223.4874,-106.602 212.8929,-106.5179 221.1226,-113.1905 223.4874,-106.602"/>
</g>
<!-- e -->
<g id="node5" class="node">
<title>e</title>
<polygon fill="none" stroke="#000000" points="231,-73.5 231,-109.5 292,-109.5 292,-73.5 231,-73.5"/>
<text text-anchor="middle" x="261.5" y="-87.8" font-family="Arial" font-size="14.00" fill="#000000">math.h</text>
</g>
<!-- a&#45;&gt;e -->
<g id="edge4" class="edge">
<title>a&#45;&gt;e</title>
<path fill="none" stroke="#000000" d="M426.3794,-155.7594C397.4171,-146.2266 350.0583,-130.0705 301.4378,-110.2202"/>
<polygon fill="#000000" stroke="#000000" points="302.605,-106.9157 292.026,-106.337 299.9352,-113.3865 302.605,-106.9157"/>
</g>
<!-- f -->
<g id="node6" class="node">
<title>f</title>
<polygon fill="none" stroke="#000000" points="310,-73.5 310,-109.5 369,-109.5 369,-73.5 310,-73.5"/>
<text text-anchor="middle" x="339.5" y="-87.8" font-family="Arial" font-size="14.00" fill="#000000">stdio.h</text>
</g>
<!-- a&#45;&gt;f -->
<g id="edge5" class="edge">
<title>a&#45;&gt;f</title>
<path fill="none" stroke="#000000" d="M426.4836,-147.2C411.595,-137.6661 392.8909,-125.6889 376.6456,-115.2862"/>
<polygon fill="#000000" stroke="#000000" points="378.2221,-112.1397 367.9133,-109.6945 374.4473,-118.0347 378.2221,-112.1397"/>
</g>
<!-- g -->
<g id="node7" class="node">
<title>g</title>
<polygon fill="none" stroke="#000000" points="387.5,-73.5 387.5,-109.5 443.5,-109.5 443.5,-73.5 387.5,-73.5"/>
<text text-anchor="middle" x="415.5" y="-87.8" font-family="Arial" font-size="14.00" fill="#000000">cars.c</text>
</g>
<!-- a&#45;&gt;g -->
<g id="edge6" class="edge">
<title>a&#45;&gt;g</title>
<path fill="none" stroke="#000000" d="M444.1067,-146.4551C439.7221,-138.0319 434.4111,-127.8292 429.5614,-118.5128"/>
<polygon fill="#000000" stroke="#000000" points="432.6389,-116.8445 424.9169,-109.5904 426.4297,-120.0766 432.6389,-116.8445"/>
</g>
<!-- h -->
<g id="node8" class="node">
<title>h</title>
<polygon fill="none" stroke="#000000" points="462,-73.5 462,-109.5 523,-109.5 523,-73.5 462,-73.5"/>
<text text-anchor="middle" x="492.5" y="-87.8" font-family="Arial" font-size="14.00" fill="#000000">math.h</text>
</g>
<!-- a&#45;&gt;h -->
<g id="edge7" class="edge">
<title>a&#45;&gt;h</title>
<path fill="none" stroke="#000000" d="M463.1405,-146.4551C467.6405,-138.0319 473.0912,-127.8292 478.0685,-118.5128"/>
<polygon fill="#000000" stroke="#000000" points="481.2102,-120.0598 482.8353,-109.5904 475.036,-116.7613 481.2102,-120.0598"/>
</g>
<!-- i -->
<g id="node9" class="node">
<title>i</title>
<polygon fill="none" stroke="#000000" points="541,-73.5 541,-109.5 600,-109.5 600,-73.5 541,-73.5"/>
<text text-anchor="middle" x="570.5" y="-87.8" font-family="Arial" font-size="14.00" fill="#000000">stdio.h</text>
</g>
<!-- a&#45;&gt;i -->
<g id="edge8" class="edge">
<title>a&#45;&gt;i</title>
<path fill="none" stroke="#000000" d="M480.6362,-147.5688C496.1573,-137.8848 515.8604,-125.5914 532.8594,-114.9851"/>
<polygon fill="#000000" stroke="#000000" points="534.8346,-117.8782 541.4659,-109.6153 531.1291,-111.9394 534.8346,-117.8782"/>
</g>
<!-- j -->
<g id="node10" class="node">
<title>j</title>
<polygon fill="none" stroke="#000000" points="618.5,-73.5 618.5,-109.5 674.5,-109.5 674.5,-73.5 618.5,-73.5"/>
<text text-anchor="middle" x="646.5" y="-87.8" font-family="Arial" font-size="14.00" fill="#000000">cars.c</text>
</g>
<!-- a&#45;&gt;j -->
<g id="edge9" class="edge">
<title>a&#45;&gt;j</title>
<path fill="none" stroke="#000000" d="M480.7375,-155.9748C511.9753,-145.9562 564.5427,-128.3567 608.5,-110 608.7031,-109.9152 608.9067,-109.8298 609.1107,-109.7439"/>
<polygon fill="#000000" stroke="#000000" points="610.721,-112.8585 618.4434,-105.6048 607.8831,-106.4596 610.721,-112.8585"/>
</g>
<!-- k -->
<g id="node11" class="node">
<title>k</title>
<polygon fill="none" stroke="#000000" points="693,-73.5 693,-109.5 754,-109.5 754,-73.5 693,-73.5"/>
<text text-anchor="middle" x="723.5" y="-87.8" font-family="Arial" font-size="14.00" fill="#000000">math.h</text>
</g>
<!-- a&#45;&gt;k -->
<g id="edge10" class="edge">
<title>a&#45;&gt;k</title>
<path fill="none" stroke="#000000" d="M480.5574,-159.9113C522.3656,-152.4337 605.1476,-136.0875 683.2456,-109.7317"/>
<polygon fill="#000000" stroke="#000000" points="684.4238,-113.0278 692.7435,-106.4679 682.1488,-106.4078 684.4238,-113.0278"/>
</g>
<!-- l -->
<g id="node12" class="node">
<title>l</title>
<polygon fill="none" stroke="#000000" points="772,-73.5 772,-109.5 831,-109.5 831,-73.5 772,-73.5"/>
<text text-anchor="middle" x="801.5" y="-87.8" font-family="Arial" font-size="14.00" fill="#000000">stdio.h</text>
</g>
<!-- a&#45;&gt;l -->
<g id="edge11" class="edge">
<title>a&#45;&gt;l</title>
<path fill="none" stroke="#000000" d="M480.5342,-162.1896C533.3896,-157.1563 653.9594,-143.133 761.8584,-109.7411"/>
<polygon fill="#000000" stroke="#000000" points="763.1111,-113.0159 771.5911,-106.6645 761.0012,-106.3415 763.1111,-113.0159"/>
</g>
<!-- m -->
<g id="node13" class="node">
<title>m</title>
<polygon fill="none" stroke="#000000" points="897.5,-73.5 897.5,-109.5 953.5,-109.5 953.5,-73.5 897.5,-73.5"/>
<text text-anchor="middle" x="925.5" y="-87.8" font-family="Arial" font-size="14.00" fill="#000000">cars.c</text>
</g>
<!-- a&#45;&gt;m -->
<g id="edge12" class="edge">
<title>a&#45;&gt;m</title>
<path fill="none" stroke="#000000" d="M480.8242,-161.3613C544.2421,-153.922 706.2538,-134.0275 840.5,-110 855.8122,-107.2594 872.5627,-103.7294 887.1154,-100.4887"/>
<polygon fill="#000000" stroke="#000000" points="888.2879,-103.8122 897.2715,-98.1957 886.7462,-96.9841 888.2879,-103.8122"/>
</g>
<!-- m5 -->
<g id="node18" class="node">
<title>m5</title>
<polygon fill="none" stroke="#000000" points="719,-.5 719,-36.5 786,-36.5 786,-.5 719,-.5"/>
<text text-anchor="middle" x="752.5" y="-14.8" font-family="Arial" font-size="14.00" fill="#000000">trucks.c</text>
</g>
<!-- l&#45;&gt;m5 -->
<g id="edge17" class="edge">
<title>l&#45;&gt;m5</title>
<path fill="none" stroke="#000000" d="M789.3876,-73.4551C783.6159,-64.8564 776.5995,-54.4034 770.2418,-44.9316"/>
<polygon fill="#000000" stroke="#000000" points="773.1222,-42.9427 764.6428,-36.5904 767.3101,-46.844 773.1222,-42.9427"/>
</g>
<!-- m1 -->
<g id="node14" class="node">
<title>m1</title>
<polygon fill="none" stroke="#000000" points="804,-.5 804,-36.5 863,-36.5 863,-.5 804,-.5"/>
<text text-anchor="middle" x="833.5" y="-14.8" font-family="Arial" font-size="14.00" fill="#000000">vans.c</text>
</g>
<!-- m&#45;&gt;m1 -->
<g id="edge13" class="edge">
<title>m&#45;&gt;m1</title>
<path fill="none" stroke="#000000" d="M902.7584,-73.4551C891.1477,-64.2422 876.8542,-52.9006 864.2734,-42.918"/>
<polygon fill="#000000" stroke="#000000" points="866.3079,-40.0644 856.2988,-36.5904 861.9569,-45.5479 866.3079,-40.0644"/>
</g>
<!-- m2 -->
<g id="node15" class="node">
<title>m2</title>
<polygon fill="none" stroke="#000000" points="881,-.5 881,-36.5 970,-36.5 970,-.5 881,-.5"/>
<text text-anchor="middle" x="925.5" y="-14.8" font-family="Arial" font-size="14.00" fill="#000000">geometry.h</text>
</g>
<!-- m&#45;&gt;m2 -->
<g id="edge14" class="edge">
<title>m&#45;&gt;m2</title>
<path fill="none" stroke="#000000" d="M925.5,-73.4551C925.5,-65.3828 925.5,-55.6764 925.5,-46.6817"/>
<polygon fill="#000000" stroke="#000000" points="929.0001,-46.5903 925.5,-36.5904 922.0001,-46.5904 929.0001,-46.5903"/>
</g>
<!-- m3 -->
<g id="node16" class="node">
<title>m3</title>
<polygon fill="none" stroke="#000000" points="988,-.5 988,-36.5 1047,-36.5 1047,-.5 988,-.5"/>
<text text-anchor="middle" x="1017.5" y="-14.8" font-family="Arial" font-size="14.00" fill="#000000">stdio.h</text>
</g>
<!-- m&#45;&gt;m3 -->
<g id="edge15" class="edge">
<title>m&#45;&gt;m3</title>
<path fill="none" stroke="#000000" d="M948.2416,-73.4551C959.8523,-64.2422 974.1458,-52.9006 986.7266,-42.918"/>
<polygon fill="#000000" stroke="#000000" points="989.0431,-45.5479 994.7012,-36.5904 984.6921,-40.0644 989.0431,-45.5479"/>
</g>
<!-- m4 -->
<g id="node17" class="node">
<title>m4</title>
<polygon fill="none" stroke="#000000" points="1065.5,-.5 1065.5,-36.5 1171.5,-36.5 1171.5,-.5 1065.5,-.5"/>
<text text-anchor="middle" x="1118.5" y="-14.8" font-family="Arial" font-size="14.00" fill="#000000">motorcycles.c</text>
</g>
<!-- m&#45;&gt;m4 -->
<g id="edge16" class="edge">
<title>m&#45;&gt;m4</title>
<path fill="none" stroke="#000000" d="M953.5639,-80.8852C981.5637,-70.2946 1025.4006,-53.7138 1060.845,-40.3073"/>
<polygon fill="#000000" stroke="#000000" points="1062.4843,-43.4293 1070.5994,-36.6178 1060.0079,-36.882 1062.4843,-43.4293"/>
</g>
</g>
</svg>
